#!OML:ASF X:\für Bonn\!DataBase\2005_08_11_Bastian_Final\c3d\Bastian.ASF
:FULLY-SPECIFIED
:DEGREES
169
root -4.67595 16.8545 -0.476657 531.759 45.3476 -175.726
lowerback 27.9476 -3.60942 -1.79685
upperback 18.2008 -1.34834 2.7393
thorax 5.37593 0.444354 4.48468
lowerneck -17.476 -12.9815 -21.3396
upperneck -6.40941 -13.7689 35.9265
head 6.11343 -5.00474 14.4007
rclavicle -7.0171e-014 8.5875e-014
rhumerus -29.1741 0.766612 -82.1942
rradius 27.0459
rwrist 4.10052
rhand -12.5797 4.5062
rfingers 7.12502
rthumb 13.4984 -25.0363
lclavicle -7.0171e-014 8.5875e-014
lhumerus -3.41636 -39.6416 92.6515
lradius 64.0607
lwrist 6.96089
lhand -18.2023 -8.95941
lfingers 7.12502
lthumb 8.07504 20.8663
rfemur -31.3473 5.75039 18.7383
rtibia 35.7102
rfoot -20.0671 -8.85961
rtoes -17.2998
lfemur 7.56905 2.74747 -17.3971
ltibia 38.7589
lfoot -25.866 -3.95593
ltoes -6.48032
170
root -4.59948 16.8423 -0.533993 531.769 45.1267 -175.75
lowerback 27.9346 -3.69489 -1.75321
upperback 18.2142 -1.43503 2.82116
thorax 5.40838 0.402884 4.57126
lowerneck -17.2819 -12.9498 -21.3866
upperneck -6.55047 -13.7128 35.9454
head 6.03018 -5.00249 14.4317
rclavicle -7.95139e-016 3.37934e-015
rhumerus -29.2215 0.57735 -82.1231
rradius 27.062
rwrist 4.26432
rhand -12.5261 4.47536
rfingers 7.12502
rthumb 13.5499 -25.0638
lclavicle -7.95139e-016 3.37934e-015
lhumerus -3.25921 -39.6887 92.7648
lradius 64.0316
lwrist 6.79236
lhand -18.2897 -9.05184
lfingers 7.12502
lthumb 7.99069 20.7771
rfemur -31.2788 5.9868 18.4821
rtibia 35.0524
rfoot -20.1975 -8.97591
rtoes -18.0431
lfemur 7.91957 2.70089 -17.288
ltibia 38.674
lfoot -25.9627 -4.25466
ltoes -6.38402
171
root -4.52115 16.8279 -0.590596 531.818 44.8951 -175.735
lowerback 27.9212 -3.78327 -1.68804
upperback 18.235 -1.51744 2.91657
thorax 5.44909 0.365646 4.66012
lowerneck -17.1132 -12.9289 -21.4078
upperneck -6.72715 -13.6603 35.9452
head 5.93695 -5.00058 14.4463
rclavicle -4.83047e-014 2.8625e-014
rhumerus -29.2678 0.419397 -82.0666
rradius 27.1175
rwrist 4.41231
rhand -12.5353 4.39342
rfingers 7.12502
rthumb 13.5411 -25.1463
lclavicle -4.83047e-014 2.8625e-014
lhumerus -3.0801 -39.7604 92.8613
lradius 64.0135
lwrist 6.64912
lhand -18.4171 -9.09791
lfingers 7.12502
lthumb 7.86781 20.7357
rfemur -31.1981 6.27888 18.2403
rtibia 34.4184
rfoot -20.2822 -9.12512
rtoes -18.5848
lfemur 8.24623 2.636 -17.1401
ltibia 38.6137
lfoot -26.0491 -4.5629
ltoes -6.46619
172
root -4.44269 16.8126 -0.64764 531.833 44.6818 -175.755
lowerback 27.9299 -3.8619 -1.62368
upperback 18.2501 -1.58785 2.9996
thorax 5.47136 0.335596 4.73317
lowerneck -16.9549 -12.9142 -21.4691
upperneck -6.87323 -13.6185 35.9587
head 5.86295 -5.00137 14.4739
rclavicle 2.40529e-014 -3.97569e-015
rhumerus -29.3467 0.390928 -82.0562
rradius 27.229
rwrist 4.44083
rhand -12.6641 4.2787
rfingers 7.12502
rthumb 13.417 -25.2692
lclavicle 2.40529e-014 -3.97569e-015
lhumerus -2.94692 -39.861 92.9691
lradius 64.0258
lwrist 6.57235
lhand -18.4995 -9.17585
lfingers 7.12502
lthumb 7.78825 20.6607
rfemur -31.0916 6.59148 17.9785
rtibia 33.8154
rfoot -20.2951 -9.24031
rtoes -18.9966
lfemur 8.58505 2.58853 -17.016
ltibia 38.5636
lfoot -26.1346 -4.85552
ltoes -6.4093
173
root -4.36378 16.7975 -0.704396 531.903 44.4752 -175.73
lowerback 27.9451 -3.94796 -1.50563
upperback 18.2453 -1.6609 3.08484
thorax 5.46328 0.308082 4.77809
lowerneck -16.7471 -12.9032 -21.5597
upperneck -7.05028 -13.5804 35.9906
head 5.7782 -5.00937 14.5154
rclavicle 4.13472e-014 1.78906e-014
rhumerus -29.4404 0.440624 -82.0867
rradius 27.3849
rwrist 4.35811
rhand -12.8943 4.0852
rfingers 7.12502
rthumb 13.195 -25.4772
lclavicle 4.13472e-014 1.78906e-014
lhumerus -2.88654 -39.9615 93.1063
lradius 64.081
lwrist 6.48618
lhand -18.5927 -9.17874
lfingers 7.12502
lthumb 7.69834 20.6611
rfemur -30.9945 6.98539 17.7299
rtibia 33.2472
rfoot -20.2409 -9.38897
rtoes -19.17
lfemur 8.88539 2.55453 -16.8479
ltibia 38.5328
lfoot -26.2073 -5.16029
ltoes -6.45148
174
root -4.28411 16.7816 -0.761357 531.964 44.2931 -175.71
lowerback 27.9624 -4.02785 -1.37439
upperback 18.2528 -1.71984 3.16025
thorax 5.4664 0.290693 4.80194
lowerneck -16.5879 -12.9037 -21.6506
upperneck -7.204 -13.5567 36.0366
head 5.71505 -5.0178 14.5598
rclavicle -9.02482e-014 6.2816e-014
rhumerus -29.4881 0.478149 -82.1234
rradius 27.5042
rwrist 4.29613
rhand -13.1538 3.96231
rfingers 7.12502
rthumb 12.9449 -25.6161
lclavicle -9.02482e-014 6.2816e-014
lhumerus -2.84042 -40.0362 93.2544
lradius 64.1312
lwrist 6.397
lhand -18.6375 -9.18211
lfingers 7.12502
lthumb 7.65502 20.6593
rfemur -30.881 7.41989 17.4817
rtibia 32.7256
rfoot -20.1516 -9.52338
rtoes -19.1564
lfemur 9.20117 2.54895 -16.675
ltibia 38.5032
lfoot -26.2792 -5.44987
ltoes -6.56348
175
root -4.2038 16.7652 -0.818218 532.001 44.155 -175.727
lowerback 27.9749 -4.08966 -1.27135
upperback 18.2629 -1.7631 3.22796
thorax 5.47468 0.278433 4.82975
lowerneck -16.3849 -12.8958 -21.7509
upperneck -7.38904 -13.5195 36.0753
head 5.63115 -5.02545 14.6064
rclavicle 3.85642e-014 4.77083e-015
rhumerus -29.5228 0.551124 -82.1596
rradius 27.6436
rwrist 4.26409
rhand -13.4446 3.87077
rfingers 7.12502
rthumb 12.6646 -25.7252
lclavicle 3.85642e-014 4.77083e-015
lhumerus -2.79107 -40.0923 93.4048
lradius 64.1866
lwrist 6.34794
lhand -18.6615 -9.15086
lfingers 7.12502
lthumb 7.63187 20.6914
rfemur -30.7809 7.88577 17.2259
rtibia 32.2679
rfoot -20.025 -9.64556
rtoes -19.1535
lfemur 9.52038 2.58277 -16.5224
ltibia 38.4675
lfoot -26.3236 -5.70847
ltoes -6.68081
176
root -4.12341 16.7496 -0.87566 532.086 44.0161 -175.674
lowerback 28.029 -4.1751 -1.08876
upperback 18.2573 -1.81924 3.29432
thorax 5.44092 0.268002 4.81398
lowerneck -16.2118 -12.8889 -21.874
upperneck -7.53458 -13.4864 36.1338
head 5.56992 -5.0299 14.6667
rclavicle 1.59028e-014 -4.57205e-014
rhumerus -29.5213 0.618168 -82.2112
rradius 27.7603
rwrist 4.26938
rhand -13.7534 3.78924
rfingers 7.12502
rthumb 12.3668 -25.825
lclavicle 1.59028e-014 -4.57205e-014
lhumerus -2.75391 -40.1187 93.5725
lradius 64.2096
lwrist 6.27683
lhand -18.6317 -9.07532
lfingers 7.12502
lthumb 7.66065 20.7659
rfemur -30.6636 8.32286 17.0487
rtibia 31.8785
rfoot -19.9082 -9.7605
rtoes -18.9105
lfemur 9.84582 2.56741 -16.3324
ltibia 38.4243
lfoot -26.3681 -5.95552
ltoes -6.82448
